<?xml version="1.0" encoding="iso-8859-1"?><!-- Generator: Adobe Illustrator 21.1.0, SVG Export Plug-In . SVG Version: 6.00 Build 0)  --><svg xmlns="http://www.w3.org/2000/svg" xmlns:xlink="http://www.w3.org/1999/xlink" viewBox="0 0 50 50" width="100px" height="100px"><path d="M36,3H16C9.38,3,4,8.38,4,15v20c0,6.62,5.38,12,12,12h20c6.62,0,12-5.38,12-12V15C48,8.38,42.62,3,36,3z M13.56,31.63h-1.88v-9.57h1.88V31.63z M12.62,20.38c-0.71,0-1.23-0.5-1.23-1.15c0-0.66,0.52-1.16,1.23-1.16c0.7,0,1.22,0.5,1.22,1.16C13.84,19.88,13.32,20.38,12.62,20.38z M23.04,31.93c-3.69,0-5.93-2.56-5.93-6.65c0-4.1,2.29-6.64,5.93-6.64c3.65,0,5.9,2.55,5.9,6.64C28.94,29.36,26.71,31.93,23.04,31.93z M35.85,31.94c-2.81,0-4.7-1.45-4.84-3.72h1.95c0.17,1.2,1.35,1.97,3.04,1.97c1.58,0,2.74-0.82,2.74-1.95c0-0.96-0.73-1.54-2.41-1.94l-1.64-0.39c-2.29-0.54-3.34-1.65-3.34-3.51c0-2.26,1.85-3.76,4.62-3.76c2.57,0,4.45,1.5,4.57,3.64h-1.92c-0.19-1.17-1.2-1.9-2.68-1.9c-1.56,0-2.59,0.74-2.59,1.89c0,0.9,0.66,1.42,2.32,1.81l1.39,0.34c2.61,0.61,3.68,1.66,3.68,3.57C40.74,30.42,38.86,31.94,35.85,31.94z"/><path d="M26.93,25.28c0,2.93-1.48,4.82-3.89,4.82c-2.44,0-3.91-1.89-3.91-4.82c0-2.94,1.52-4.81,3.91-4.81C25.45,20.47,26.93,22.34,26.93,25.28z"/></svg>